<?xml version="1.0" encoding="UTF-8" standalone="no"?>
<svg width="512" height="512" viewBox="0 0 512 512" fill="none" xmlns="http://www.w3.org/2000/svg">
  <!-- Background Circle with Gradient -->
  <circle cx="256" cy="256" r="240" fill="url(#paint0_linear)" />
  
  <!-- "B" Letter -->
  <path d="M190 160C190 144.536 202.536 132 218 132H294C329.346 132 358 160.654 358 196C358 221.627 342.018 243.648 319.313 253.313C342.018 262.977 358 284.998 358 310.625C358 345.971 329.346 374.625 294 374.625H218C202.536 374.625 190 362.089 190 346.625V160Z" fill="white"/>
  
  <!-- Inner Cutout Paths for "B" -->
  <path d="M238 181.375V229.625H294C302.279 229.625 309 222.904 309 214.625C309 206.346 302.279 199.625 294 199.625H256.8C246.4 199.625 238 191.225 238 180.825V181.375Z" fill="url(#paint0_linear)"/>
  <path d="M238 278.625V326.875C238 327.425 246.4 319.025 256.8 319.025H294C302.279 319.025 309 312.304 309 304.025C309 295.746 302.279 289.025 294 289.025H256.8C246.4 289.025 238 280.625 238 270.225V278.625Z" fill="url(#paint0_linear)"/>
  
  <!-- Soft glow effects -->
  <circle cx="256" cy="256" r="245" stroke="white" stroke-opacity="0.2" stroke-width="10"/>
  <circle cx="256" cy="256" r="220" fill="none" stroke="white" stroke-opacity="0.1" stroke-width="5"/>
  
  <!-- Gradient Definition -->
  <defs>
    <linearGradient id="paint0_linear" x1="100" y1="100" x2="400" y2="400" gradientUnits="userSpaceOnUse">
      <stop offset="0" stop-color="#D8B4FE" /> <!-- purple-300 -->
      <stop offset="1" stop-color="#F9A8D4" /> <!-- pink-300 -->
    </linearGradient>
  </defs>
</svg>